<?xml version="1.0" encoding="utf-8"?>
<!-- Generator: Adobe Illustrator 16.0.0, SVG Export Plug-In . SVG Version: 6.00 Build 0)  -->
<!DOCTYPE svg PUBLIC "-//W3C//DTD SVG 1.1//EN" "http://www.w3.org/Graphics/SVG/1.1/DTD/svg11.dtd">
<svg version="1.1" xmlns="http://www.w3.org/2000/svg" xmlns:xlink="http://www.w3.org/1999/xlink" x="0px" y="0px"
	 width="595.28px" height="841.89px" viewBox="0 0 595.28 841.89" enable-background="new 0 0 595.28 841.89" xml:space="preserve">
<pattern  width="595.28" height="181.004" patternUnits="userSpaceOnUse" id="Nueva_muestra_de_motivo_15" viewBox="0 -181.004 595.28 181.004" overflow="visible">
	<g>
		<polygon fill="none" points="0,0 595.28,0 595.28,-181.004 0,-181.004 		"/>
		<g>
			<polygon fill="#C02030" points="595.28,0 396.854,0 396.854,-181.003 595.28,-181.003 			"/>
			<polygon fill="#C02330" points="593.354,0 394.928,0 394.928,-181.003 593.354,-181.003 			"/>
			<polygon fill="#C12630" points="591.428,0 393.001,0 393.001,-181.003 591.428,-181.003 			"/>
			<polygon fill="#C12930" points="589.502,0 391.074,0 391.074,-181.003 589.502,-181.003 			"/>
			<polygon fill="#C12C31" points="587.575,0 389.148,0 389.148,-181.003 587.575,-181.003 			"/>
			<polygon fill="#C12E31" points="585.649,0 387.222,0 387.222,-181.003 585.649,-181.003 			"/>
			<polygon fill="#C23031" points="583.722,0 385.295,0 385.295,-181.003 583.722,-181.003 			"/>
			<polygon fill="#C23231" points="581.796,0 383.369,0 383.369,-181.003 581.796,-181.003 			"/>
			<polygon fill="#C23431" points="579.869,0 381.442,0 381.442,-181.003 579.869,-181.003 			"/>
			<polygon fill="#C23631" points="577.942,0 379.516,0 379.516,-181.004 577.942,-181.004 			"/>
			<polygon fill="#C33732" points="576.017,0 377.59,0 377.59,-181.003 576.017,-181.003 			"/>
			<polygon fill="#C33932" points="574.09,0 375.663,0 375.663,-181.003 574.09,-181.003 			"/>
			<polygon fill="#C33B32" points="572.163,0 373.736,0 373.736,-181.004 572.163,-181.004 			"/>
			<polygon fill="#C33C32" points="570.236,0 371.81,0 371.81,-181.003 570.236,-181.003 			"/>
			<polygon fill="#C33D32" points="568.31,-0.001 369.884,-0.001 369.884,-181.004 568.31,-181.004 			"/>
			<polygon fill="#C43F32" points="566.384,0 367.957,0 367.957,-181.003 566.384,-181.003 			"/>
			<polygon fill="#C44032" points="564.457,0 366.03,0 366.03,-181.003 564.457,-181.003 			"/>
			<polygon fill="#C44233" points="562.531,0 364.104,0 364.104,-181.003 562.531,-181.003 			"/>
			<polygon fill="#C44333" points="560.604,0 362.178,0 362.178,-181.003 560.604,-181.003 			"/>
			<polygon fill="#C54533" points="558.678,0 360.251,0 360.251,-181.003 558.678,-181.003 			"/>
			<polygon fill="#C54633" points="556.751,0 358.325,0 358.325,-181.003 556.751,-181.003 			"/>
			<polygon fill="#C54733" points="554.825,0 356.398,0 356.398,-181.003 554.825,-181.003 			"/>
			<polygon fill="#C54933" points="552.898,0 354.472,0 354.472,-181.003 552.898,-181.003 			"/>
			<polygon fill="#C54A34" points="550.973,0 352.545,0 352.545,-181.003 550.973,-181.003 			"/>
			<polygon fill="#C64B34" points="549.046,0 350.619,0 350.619,-181.003 549.046,-181.003 			"/>
			<polygon fill="#C64C34" points="547.119,-0.001 348.692,-0.001 348.692,-181.003 547.119,-181.003 			"/>
			<polygon fill="#C64D34" points="545.193,0 346.767,0 346.767,-181.003 545.193,-181.003 			"/>
			<polygon fill="#C64F34" points="543.266,0 344.84,0 344.84,-181.003 543.266,-181.003 			"/>
			<polygon fill="#C65034" points="541.34,0 342.913,0 342.913,-181.003 541.34,-181.003 			"/>
			<polygon fill="#C75134" points="539.413,0 340.986,0 340.986,-181.003 539.413,-181.003 			"/>
			<polygon fill="#C75235" points="537.486,0 339.06,0 339.06,-181.003 537.486,-181.003 			"/>
			<polygon fill="#C75335" points="535.561,0 337.134,0 337.134,-181.003 535.561,-181.003 			"/>
			<polygon fill="#C75435" points="533.634,0 335.207,0 335.207,-181.003 533.634,-181.003 			"/>
			<polygon fill="#C75535" points="531.707,0 333.28,0 333.28,-181.003 531.707,-181.003 			"/>
			<polygon fill="#C85635" points="529.781,0 331.354,0 331.354,-181.003 529.781,-181.003 			"/>
			<polygon fill="#C85735" points="527.854,0 329.428,0 329.428,-181.003 527.854,-181.003 			"/>
			<polygon fill="#C85835" points="525.928,0 327.501,0 327.501,-181.003 525.928,-181.003 			"/>
			<polygon fill="#C85935" points="524.001,0 325.574,0 325.574,-181.003 524.001,-181.003 			"/>
			<polygon fill="#C85936" points="522.074,0 323.648,0 323.648,-181.004 522.074,-181.004 			"/>
			<polygon fill="#C85A36" points="520.148,0 321.722,0 321.722,-181.003 520.148,-181.003 			"/>
			<polygon fill="#C95B36" points="518.222,0 319.795,0 319.795,-181.003 518.222,-181.003 			"/>
			<polygon fill="#C95C36" points="516.295,0 317.869,0 317.869,-181.003 516.295,-181.003 			"/>
			<polygon fill="#C95D36" points="514.369,0 315.942,0 315.942,-181.003 514.369,-181.003 			"/>
			<polygon fill="#C95E36" points="512.442,0 314.016,0 314.016,-181.003 512.442,-181.003 			"/>
			<polygon fill="#C95F36" points="510.516,0 312.09,0 312.09,-181.003 510.516,-181.003 			"/>
			<polygon fill="#CA6036" points="508.59,0 310.163,0 310.163,-181.003 508.59,-181.003 			"/>
			<polygon fill="#CA6137" points="506.663,0 308.236,0 308.236,-181.003 506.663,-181.003 			"/>
			<polygon fill="#CA6237" points="504.737,0 306.311,0 306.311,-181.003 504.737,-181.003 			"/>
			<polygon fill="#CA6237" points="502.811,0 304.384,0 304.384,-181.003 502.811,-181.003 			"/>
			<polygon fill="#CA6337" points="500.883,0 302.457,0 302.457,-181.003 500.883,-181.003 			"/>
			<polygon fill="#CA6437" points="498.957,0 300.531,0 300.531,-181.003 498.957,-181.003 			"/>
			<polygon fill="#CB6537" points="497.03,0 298.604,0 298.604,-181.003 497.03,-181.003 			"/>
			<polygon fill="#CB6637" points="495.104,0 296.678,0 296.678,-181.003 495.104,-181.003 			"/>
			<polygon fill="#CB6637" points="493.178,0 294.751,0 294.751,-181.003 493.178,-181.003 			"/>
			<polygon fill="#CB6737" points="491.252,0 292.824,0 292.824,-181.003 491.252,-181.003 			"/>
			<polygon fill="#CB6838" points="489.324,0 290.898,0 290.898,-181.003 489.324,-181.003 			"/>
			<polygon fill="#CB6938" points="487.398,0 288.972,0 288.972,-181.003 487.398,-181.003 			"/>
			<polygon fill="#CC6A38" points="485.472,0 287.045,0 287.045,-181.003 485.472,-181.003 			"/>
			<polygon fill="#CC6A38" points="483.546,0 285.119,0 285.119,-181.003 483.546,-181.003 			"/>
			<polygon fill="#CC6B38" points="481.619,0 283.192,0 283.192,-181.003 481.619,-181.003 			"/>
			<polygon fill="#CC6C38" points="479.692,0 281.266,0 281.266,-181.003 479.692,-181.003 			"/>
			<polygon fill="#CC6D38" points="477.766,0 279.339,0 279.339,-181.003 477.766,-181.003 			"/>
			<polygon fill="#CC6D38" points="475.84,0 277.413,0 277.413,-181.003 475.84,-181.003 			"/>
			<polygon fill="#CD6E38" points="473.913,0 275.486,0 275.486,-181.003 473.913,-181.003 			"/>
			<polygon fill="#CD6F39" points="471.986,0 273.56,0 273.56,-181.003 471.986,-181.003 			"/>
			<polygon fill="#CD6F39" points="470.061,0 271.633,0 271.633,-181.003 470.061,-181.003 			"/>
			<polygon fill="#CD7039" points="468.134,0 269.707,0 269.707,-181.003 468.134,-181.003 			"/>
			<polygon fill="#CD7139" points="466.207,0 267.78,0 267.78,-181.003 466.207,-181.003 			"/>
			<polygon fill="#CD7239" points="464.28,0 265.854,0 265.854,-181.003 464.28,-181.003 			"/>
			<polygon fill="#CD7239" points="462.354,0 263.928,0 263.928,-181.003 462.354,-181.003 			"/>
			<polygon fill="#CE7339" points="460.428,0 262.001,0 262.001,-181.003 460.428,-181.003 			"/>
			<polygon fill="#CE7439" points="458.501,0 260.074,0 260.074,-181.003 458.501,-181.003 			"/>
			<polygon fill="#CE7439" points="456.574,0 258.148,0 258.148,-181.003 456.574,-181.003 			"/>
			<polygon fill="#CE7539" points="454.648,0 256.222,0 256.222,-181.003 454.648,-181.003 			"/>
			<polygon fill="#CE7639" points="452.722,0 254.295,0 254.295,-181.003 452.722,-181.003 			"/>
			<polygon fill="#CE763A" points="450.795,0 252.369,0 252.369,-181.003 450.795,-181.003 			"/>
			<polygon fill="#CF773A" points="448.869,0 250.442,0 250.442,-181.003 448.869,-181.003 			"/>
			<polygon fill="#CF783A" points="446.942,0 248.516,0 248.516,-181.003 446.942,-181.003 			"/>
			<polygon fill="#CF783A" points="445.016,0 246.589,0 246.589,-181.003 445.016,-181.003 			"/>
			<polygon fill="#CF793A" points="443.09,0 244.663,0 244.663,-181.003 443.09,-181.003 			"/>
			<polygon fill="#CF7A3A" points="441.162,0 242.736,0 242.736,-181.003 441.162,-181.003 			"/>
			<polygon fill="#CF7A3A" points="439.236,0 240.81,0 240.81,-181.003 439.236,-181.003 			"/>
			<polygon fill="#D07B3A" points="437.31,0 238.883,0 238.883,-181.003 437.31,-181.003 			"/>
			<polygon fill="#D07C3A" points="435.384,0 236.957,0 236.957,-181.003 435.384,-181.003 			"/>
			<polygon fill="#D07C3A" points="433.457,0 235.03,0 235.03,-181.003 433.457,-181.003 			"/>
			<polygon fill="#D07D3A" points="431.53,0 233.104,0 233.104,-181.003 431.53,-181.003 			"/>
			<polygon fill="#D07E3B" points="429.604,0 231.177,0 231.177,-181.003 429.604,-181.003 			"/>
			<polygon fill="#D07E3B" points="427.678,0 229.251,0 229.251,-181.003 427.678,-181.003 			"/>
			<polygon fill="#D17F3B" points="425.751,0 227.324,0 227.324,-181.003 425.751,-181.003 			"/>
			<polygon fill="#D1803B" points="423.824,0 225.398,0 225.398,-181.003 423.824,-181.003 			"/>
			<polygon fill="#D1803B" points="421.898,0 223.472,0 223.472,-181.003 421.898,-181.003 			"/>
			<polygon fill="#D1813B" points="419.972,0 221.545,0 221.545,-181.003 419.972,-181.003 			"/>
			<polygon fill="#D1823B" points="418.045,0 219.618,0 219.618,-181.003 418.045,-181.003 			"/>
			<polygon fill="#D1823B" points="416.118,0 217.692,0 217.692,-181.003 416.118,-181.003 			"/>
			<polygon fill="#D1833B" points="414.192,0 215.766,0 215.766,-181.003 414.192,-181.003 			"/>
			<polygon fill="#D2843B" points="412.266,0 213.839,0 213.839,-181.003 412.266,-181.003 			"/>
			<polygon fill="#D2843B" points="410.34,0 211.913,0 211.913,-181.003 410.34,-181.003 			"/>
			<polygon fill="#D2853B" points="408.412,0 209.986,0 209.986,-181.003 408.412,-181.003 			"/>
			<polygon fill="#D2853C" points="406.486,0 208.06,0 208.06,-181.003 406.486,-181.003 			"/>
			<polygon fill="#D2863C" points="404.56,0 206.133,0 206.133,-181.003 404.56,-181.003 			"/>
			<polygon fill="#D2873C" points="402.633,0 204.207,0 204.207,-181.003 402.633,-181.003 			"/>
			<polygon fill="#D3873C" points="400.707,0 202.28,0 202.28,-181.003 400.707,-181.003 			"/>
			<polygon fill="#D3883C" points="398.78,0 200.354,0 200.354,-181.003 398.78,-181.003 			"/>
			<polygon fill="#D3893C" points="396.854,0 198.427,0 198.427,-181.003 396.854,-181.003 			"/>
			<polygon fill="#D3893C" points="394.928,0 196.5,0 196.5,-181.003 394.928,-181.003 			"/>
			<polygon fill="#D38A3C" points="393.001,0 194.574,0 194.574,-181.003 393.001,-181.003 			"/>
			<polygon fill="#D38A3C" points="391.074,0 192.647,0 192.647,-181.003 391.074,-181.003 			"/>
			<polygon fill="#D38B3C" points="389.147,0 190.721,0 190.721,-181.003 389.147,-181.003 			"/>
			<polygon fill="#D48C3C" points="387.221,0 188.795,0 188.795,-181.003 387.221,-181.003 			"/>
			<polygon fill="#D48C3C" points="385.295,0 186.868,0 186.868,-181.003 385.295,-181.003 			"/>
			<polygon fill="#D48D3D" points="383.369,0 184.942,0 184.942,-181.003 383.369,-181.003 			"/>
			<polygon fill="#D48E3D" points="381.442,0 183.016,0 183.016,-181.003 381.442,-181.003 			"/>
			<polygon fill="#D48E3D" points="379.516,0 181.089,0 181.089,-181.003 379.516,-181.003 			"/>
			<polygon fill="#D58F3D" points="377.589,0 179.163,0 179.163,-181.003 377.589,-181.003 			"/>
			<polygon fill="#D5903D" points="375.662,0 177.236,0 177.236,-181.003 375.662,-181.003 			"/>
			<polygon fill="#D5903D" points="373.736,0 175.31,0 175.31,-181.003 373.736,-181.003 			"/>
			<polygon fill="#D5913D" points="371.81,0 173.383,0 173.383,-181.003 371.81,-181.003 			"/>
			<polygon fill="#D5923D" points="369.883,0 171.457,0 171.457,-181.003 369.883,-181.003 			"/>
			<polygon fill="#D5923D" points="367.957,0 169.53,0 169.53,-181.003 367.957,-181.003 			"/>
			<polygon fill="#D6933D" points="366.03,0 167.604,0 167.604,-181.003 366.03,-181.003 			"/>
			<polygon fill="#D6943D" points="364.104,0 165.677,0 165.677,-181.003 364.104,-181.003 			"/>
			<polygon fill="#D6943D" points="362.178,0 163.75,0 163.75,-181.003 362.178,-181.003 			"/>
			<polygon fill="#D6953E" points="360.251,0 161.824,0 161.824,-181.003 360.251,-181.003 			"/>
			<polygon fill="#D6963E" points="358.324,0 159.897,0 159.897,-181.003 358.324,-181.003 			"/>
			<polygon fill="#D7963E" points="356.397,0 157.971,0 157.971,-181.003 356.397,-181.003 			"/>
			<polygon fill="#D7973E" points="354.471,0 156.045,0 156.045,-181.003 354.471,-181.003 			"/>
			<polygon fill="#D7983E" points="352.545,0 154.118,0 154.118,-181.003 352.545,-181.003 			"/>
			<polygon fill="#D7993E" points="350.618,0 152.192,0 152.192,-181.003 350.618,-181.003 			"/>
			<polygon fill="#D7993E" points="348.691,0 150.266,0 150.266,-181.003 348.691,-181.003 			"/>
			<polygon fill="#D89A3E" points="346.766,0 148.339,0 148.339,-181.003 346.766,-181.003 			"/>
			<polygon fill="#D89B3E" points="344.839,0 146.412,0 146.412,-181.003 344.839,-181.003 			"/>
			<polygon fill="#D89B3E" points="342.912,0 144.486,0 144.486,-181.003 342.912,-181.003 			"/>
			<polygon fill="#D89C3E" points="340.986,0 142.56,0 142.56,-181.003 340.986,-181.003 			"/>
			<polygon fill="#D89D3E" points="339.059,0 140.633,0 140.633,-181.003 339.059,-181.003 			"/>
			<polygon fill="#D89D3F" points="337.133,0 138.706,0 138.706,-181.003 337.133,-181.003 			"/>
			<polygon fill="#D99E3F" points="335.207,0 136.78,0 136.78,-181.003 335.207,-181.003 			"/>
			<polygon fill="#D99F3F" points="333.28,0 134.854,0 134.854,-181.003 333.28,-181.003 			"/>
			<polygon fill="#D99F3F" points="331.354,0 132.927,0 132.927,-181.003 331.354,-181.003 			"/>
			<polygon fill="#D9A03F" points="329.427,0 131,0 131,-181.003 329.427,-181.003 			"/>
			<polygon fill="#D9A13F" points="327.5,0 129.074,0 129.074,-181.003 327.5,-181.003 			"/>
			<polygon fill="#DAA23F" points="325.574,0 127.147,0 127.147,-181.003 325.574,-181.003 			"/>
			<polygon fill="#DAA23F" points="323.647,0 125.221,0 125.221,-181.003 323.647,-181.003 			"/>
			<polygon fill="#DAA33F" points="321.721,0 123.295,0 123.295,-181.003 321.721,-181.003 			"/>
			<polygon fill="#DAA43F" points="319.795,0 121.368,0 121.368,-181.003 319.795,-181.003 			"/>
			<polygon fill="#DAA43F" points="317.868,0 119.442,0 119.442,-181.003 317.868,-181.003 			"/>
			<polygon fill="#DBA53F" points="315.941,0 117.515,0 117.515,-181.003 315.941,-181.003 			"/>
			<polygon fill="#DBA63F" points="314.016,0 115.588,0 115.588,-181.003 314.016,-181.003 			"/>
			<polygon fill="#DBA740" points="312.089,0 113.662,0 113.662,-181.003 312.089,-181.003 			"/>
			<polygon fill="#DBA740" points="310.162,0 111.735,0 111.735,-181.003 310.162,-181.003 			"/>
			<polygon fill="#DCA840" points="308.235,0 109.81,0 109.81,-181.003 308.235,-181.003 			"/>
			<polygon fill="#DCA940" points="306.309,0 107.883,0 107.883,-181.003 306.309,-181.003 			"/>
			<polygon fill="#DCA940" points="304.383,0 105.956,0 105.956,-181.003 304.383,-181.003 			"/>
			<polygon fill="#DCAA40" points="302.457,0 104.03,0 104.03,-181.003 302.457,-181.003 			"/>
			<polygon fill="#DCAB40" points="300.529,0 102.104,0 102.104,-181.003 300.529,-181.003 			"/>
			<polygon fill="#DDAC40" points="298.604,0 100.177,0 100.177,-181.003 298.604,-181.003 			"/>
			<polygon fill="#DDAC40" points="296.677,0 98.25,0 98.25,-181.003 296.677,-181.003 			"/>
			<polygon fill="#DDAD40" points="294.75,0 96.324,0 96.324,-181.003 294.75,-181.003 			"/>
			<polygon fill="#DDAE40" points="292.824,0 94.397,0 94.397,-181.003 292.824,-181.003 			"/>
			<polygon fill="#DEAE40" points="290.897,0 92.471,0 92.471,-181.003 290.897,-181.003 			"/>
			<polygon fill="#DEAF40" points="288.971,0 90.544,0 90.544,-181.003 288.971,-181.003 			"/>
			<polygon fill="#DEB040" points="287.044,0 88.618,0 88.618,-181.003 287.044,-181.003 			"/>
			<polygon fill="#DEB040" points="285.118,0 86.692,0 86.692,-181.003 285.118,-181.003 			"/>
			<polygon fill="#DEB141" points="283.191,0 84.765,0 84.765,-181.003 283.191,-181.003 			"/>
			<polygon fill="#DFB241" points="281.265,0 82.838,0 82.838,-181.003 281.265,-181.003 			"/>
			<polygon fill="#DFB341" points="279.338,0 80.912,0 80.912,-181.003 279.338,-181.003 			"/>
			<polygon fill="#DFB341" points="277.412,0 78.985,0 78.985,-181.003 277.412,-181.003 			"/>
			<polygon fill="#DFB441" points="275.485,0 77.06,0 77.06,-181.003 275.485,-181.003 			"/>
			<polygon fill="#DFB541" points="273.559,0 75.133,0 75.133,-181.003 273.559,-181.003 			"/>
			<polygon fill="#E0B541" points="271.632,0 73.206,0 73.206,-181.003 271.632,-181.003 			"/>
			<polygon fill="#E0B641" points="269.706,0 71.28,0 71.28,-181.003 269.706,-181.003 			"/>
			<polygon fill="#E0B741" points="267.78,0 69.353,0 69.353,-181.003 267.78,-181.003 			"/>
			<polygon fill="#E0B741" points="265.853,0 67.427,0 67.427,-181.003 265.853,-181.003 			"/>
			<polygon fill="#E0B841" points="263.927,0 65.5,0 65.5,-181.003 263.927,-181.003 			"/>
			<polygon fill="#E1B941" points="262,0 63.574,0 63.574,-181.003 262,-181.003 			"/>
			<polygon fill="#E1BA41" points="260.074,0 61.647,0 61.647,-181.003 260.074,-181.003 			"/>
			<polygon fill="#E1BA41" points="258.147,0 59.721,0 59.721,-181.003 258.147,-181.003 			"/>
			<polygon fill="#E1BB41" points="256.221,0 57.794,0 57.794,-181.003 256.221,-181.003 			"/>
			<polygon fill="#E2BC41" points="254.294,0 55.868,0 55.868,-181.003 254.294,-181.003 			"/>
			<polygon fill="#E2BC41" points="252.368,0 53.941,0 53.941,-181.003 252.368,-181.003 			"/>
			<polygon fill="#E2BD41" points="250.441,0 52.015,0 52.015,-181.003 250.441,-181.003 			"/>
			<polygon fill="#E2BE41" points="248.515,0 50.088,0 50.088,-181.003 248.515,-181.003 			"/>
			<polygon fill="#E2BE42" points="246.588,0 48.162,0 48.162,-181.003 246.588,-181.003 			"/>
			<polygon fill="#E3BF42" points="244.662,0 46.235,0 46.235,-181.003 244.662,-181.003 			"/>
			<polygon fill="#E3C042" points="242.735,0 44.309,0 44.309,-181.003 242.735,-181.003 			"/>
			<polygon fill="#E3C042" points="240.809,0 42.382,0 42.382,-181.003 240.809,-181.003 			"/>
			<polygon fill="#E3C142" points="238.883,0 40.456,0 40.456,-181.003 238.883,-181.003 			"/>
			<polygon fill="#E4C242" points="236.956,0 38.53,0 38.53,-181.003 236.956,-181.003 			"/>
			<polygon fill="#E4C342" points="235.029,0 36.603,0 36.603,-181.003 235.029,-181.003 			"/>
			<polygon fill="#E4C342" points="233.103,0 34.677,0 34.677,-181.003 233.103,-181.003 			"/>
			<polygon fill="#E4C442" points="231.176,0 32.75,0 32.75,-181.003 231.176,-181.003 			"/>
			<polygon fill="#E5C542" points="229.25,0 30.823,0 30.823,-181.003 229.25,-181.003 			"/>
			<polygon fill="#E5C542" points="227.323,0 28.897,0 28.897,-181.003 227.323,-181.003 			"/>
			<polygon fill="#E5C642" points="225.397,0 26.971,0 26.971,-181.003 225.397,-181.003 			"/>
			<polygon fill="#E5C742" points="223.47,0 25.044,0 25.044,-181.003 223.47,-181.003 			"/>
			<polygon fill="#E5C742" points="221.544,0 23.118,0 23.118,-181.003 221.544,-181.003 			"/>
			<polygon fill="#E6C842" points="219.618,0 21.191,0 21.191,-181.003 219.618,-181.003 			"/>
			<polygon fill="#E6C942" points="217.691,0 19.265,0 19.265,-181.003 217.691,-181.003 			"/>
			<polygon fill="#E6C942" points="215.765,0 17.338,0 17.338,-181.003 215.765,-181.003 			"/>
			<polygon fill="#E6CA42" points="213.838,0 15.412,0 15.412,-181.003 213.838,-181.003 			"/>
			<polygon fill="#E7CB42" points="211.912,0 13.485,0 13.485,-181.003 211.912,-181.003 			"/>
			<polygon fill="#E7CB42" points="209.985,0 11.559,0 11.559,-181.003 209.985,-181.003 			"/>
			<polygon fill="#E7CC42" points="208.059,0 9.632,0 9.632,-181.003 208.059,-181.003 			"/>
			<polygon fill="#E7CD42" points="206.132,0 7.706,0 7.706,-181.003 206.132,-181.003 			"/>
			<polygon fill="#E7CD42" points="204.206,0 5.78,0 5.78,-181.003 204.206,-181.003 			"/>
			<polygon fill="#E8CE42" points="202.279,0 3.853,0 3.853,-181.003 202.279,-181.003 			"/>
			<polygon fill="#E8CF42" points="200.353,0 1.927,0 1.927,-181.003 200.353,-181.003 			"/>
			<polygon fill="#E8D042" points="198.426,0 0,0 0,-181.003 198.426,-181.003 			"/>
		</g>
	</g>
</pattern>
<g id="Capa_1">
	<line fill="none" x1="417.803" y1="294.595" x2="526.87" y2="294.595"/>
	<g>
		<g>
			<path fill="url(#Nueva_muestra_de_motivo_15)" d="M448.232,304.819c1.574,7.335,2.953,18.325-4.868,22.707
				c-5.893,3.301-13.761-0.102-18.823-3.377c-8.653-5.597-13.113-15.188-16.155-24.688c-2.29-7.153-3.843-16.811,2.486-22.369
				c6.223-5.465,17.251-2.734,24.178-0.66c9.349,2.799,17.811,7.646,25.843,13.094c14.698,9.97,27.746,23.138,43.964,30.706
				c8.372,3.907,17.42,5.058,25.865,0.763c12.411-6.312,19.014-21.691,23.912-33.806c1.209-2.991-3.63-4.278-4.822-1.329
				c-6.472,16.01-17.453,38.014-38.191,31.688c-7.691-2.346-14.589-7.326-21.016-12.001c-7.601-5.529-14.879-11.486-22.479-17.018
				c-13.983-10.178-32.348-21.379-50.436-19.206c-17.863,2.146-17.935,20.439-13.288,33.993
				c5.025,14.661,15.426,28.809,32.015,30.364c5.501,0.516,11.318-1.686,14.503-6.314c4.778-6.945,3.806-16.086,2.135-23.877
				C452.378,300.338,447.559,301.675,448.232,304.819L448.232,304.819z"/>
		</g>
	</g>
	<g>
		<g>
			<path fill="url(#Nueva_muestra_de_motivo_15)" d="M496.836,316.585c0.035,18.256,1.191,36.479-0.935,54.675
				c-2.107,18.034-8.353,38.772-26.647,46.319c-12.067,4.978-22.323-1.687-26.391-13.366c-4.038-11.594-1.976-25.788,6.604-34.824
				c6.679-7.034,16.5-8.945,25.829-8.451c3.224,0.171,3.207-4.83,0-5c-14.325-0.759-27.984,4.606-34.967,17.677
				c-5.636,10.549-5.853,24.237-1.045,35.121c4.644,10.51,14.105,17.099,25.772,15.269c17.052-2.675,27.504-18.807,32.152-34.008
				c7.232-23.646,4.673-49.079,4.626-73.412C501.83,313.361,496.83,313.36,496.836,316.585L496.836,316.585z"/>
		</g>
	</g>
	<g>
		<g>
			<path fill="url(#Nueva_muestra_de_motivo_15)" d="M501.922,360.494c7.837-11.814,22.691-13.382,35.366-16.48
				c3.131-0.765,1.802-5.587-1.33-4.821c-14.229,3.479-29.616,5.606-38.354,18.778C495.815,360.666,500.148,363.167,501.922,360.494
				L501.922,360.494z"/>
		</g>
	</g>
</g>
<g id="Capa_2">
	<path fill="none" stroke="url(#Nueva_muestra_de_motivo_15)" stroke-miterlimit="10" d="M478.075,294.301"/>
</g>
</svg>
